<?xml version="1.0" standalone="no"?>
<!DOCTYPE svg PUBLIC "-//W3C//DTD SVG 20010904//EN"
 "http://www.w3.org/TR/2001/REC-SVG-20010904/DTD/svg10.dtd">
<svg version="1.0" xmlns="http://www.w3.org/2000/svg"
 width="260.000000pt" height="260.000000pt" viewBox="0 0 260.000000 260.000000"
 preserveAspectRatio="xMidYMid meet">
<metadata>
Created by potrace 1.11, written by Peter Selinger 2001-2013
</metadata>
<g transform="translate(0.000000,260.000000) scale(0.100000,-0.100000)"
fill="#000000" stroke="none">
<path d="M1107 2259 c-37 -22 -75 -52 -84 -65 -27 -42 -52 -87 -70 -124 -20
-45 -22 -155 -2 -195 15 -29 14 -31 -33 -95 -27 -36 -59 -77 -73 -91 -13 -15
-47 -71 -75 -125 -29 -55 -58 -106 -66 -115 -8 -9 -25 -49 -39 -90 -42 -120
-34 -261 17 -349 25 -42 89 -102 135 -127 18 -10 32 -22 30 -28 -2 -5 -24 -16
-49 -23 -68 -19 -124 -75 -132 -134 -10 -64 8 -122 43 -148 21 -14 31 -32 36
-60 8 -49 -13 -186 -31 -201 -8 -6 -14 -15 -14 -20 0 -15 30 -10 36 6 8 19 24
19 24 0 0 -12 16 -15 80 -15 l80 0 0 74 c0 86 6 106 29 106 26 0 41 -21 41
-56 0 -17 3 -52 6 -78 l7 -46 383 0 384 0 0 33 c0 50 11 52 31 7 l18 -40 91 0
c51 0 90 3 88 8 -41 81 -72 160 -84 211 -13 56 -13 65 0 80 45 50 68 149 46
206 -26 68 -121 145 -179 145 -23 0 -28 14 -10 26 6 4 25 36 42 73 66 144 37
405 -60 548 -14 21 -35 55 -47 75 -58 102 -218 258 -314 307 l-41 21 16 30
c11 22 14 53 12 109 -4 69 -7 81 -37 118 -42 53 -90 83 -133 83 -21 -1 -60
-16 -102 -41z m32 -53 c-2 -2 -16 -7 -32 -11 -33 -9 -38 12 -4 24 20 8 47 -2
36 -13z m-76 -47 c-3 -11 -19 -30 -34 -42 -32 -23 -35 -35 -17 -83 9 -26 9
-39 -1 -60 -17 -38 -32 -19 -33 42 -1 45 23 112 54 152 17 20 37 15 31 -9z
m-13 -67 c0 -13 -12 -22 -22 -16 -10 6 -1 24 13 24 5 0 9 -4 9 -8z m321 -188
c32 -16 34 -31 7 -48 -12 -7 -24 -6 -42 3 -21 12 -23 17 -14 37 13 28 11 28
49 8z m-6 -230 c36 -17 57 -58 48 -92 -7 -28 -43 -42 -168 -64 -255 -45 -302
-45 -336 2 -30 43 -32 66 -7 93 36 38 73 50 208 71 74 11 224 5 255 -10z
m-533 -79 c-75 -113 -132 -339 -111 -438 16 -74 41 -119 93 -164 35 -31 44
-45 39 -61 -6 -26 -6 -26 -41 -8 -32 16 -101 95 -128 146 -25 47 -26 195 -2
260 25 65 148 304 161 312 23 14 19 -2 -11 -47z m433 -394 c8 -71 1 -100 -26
-102 -10 -1 -25 -2 -31 -3 -9 -1 -15 22 -19 69 l-5 70 -2 -67 c-1 -37 -6 -69
-12 -73 -16 -10 -40 52 -40 104 l0 50 43 4 c23 2 52 4 64 5 19 2 22 -5 28 -57z
m-360 -291 c10 -11 16 -23 12 -26 -9 -9 -47 16 -47 31 0 21 14 19 35 -5z m-15
-99 c0 -45 66 -106 138 -128 45 -14 88 -18 207 -16 170 1 282 21 329 57 43 32
76 48 76 38 0 -19 -82 -62 -157 -83 -59 -17 -114 -23 -229 -27 -133 -4 -160
-1 -233 18 -59 16 -93 32 -117 54 -33 30 -48 73 -37 104 9 23 23 12 23 -17z
m-166 -68 c-32 -47 -38 -72 -24 -108 9 -28 9 -29 -5 -11 -27 35 -14 103 27
138 30 26 31 23 2 -19z m247 -199 c10 -13 10 -17 -2 -25 -8 -5 -19 -9 -25 -9
-17 0 -37 27 -29 40 9 15 41 12 56 -6z m-196 -186 c-7 -44 -12 -55 -19 -47 -8
8 7 89 16 89 6 0 7 -17 3 -42z"/>
</g>
</svg>
